<svg width="174" version="1.1" xmlns="http://www.w3.org/2000/svg" xmlns:xlink="http://www.w3.org/1999/xlink" x="0px" y="0px" viewBox="0 0 457.79998779296875 120.80000305175781" style="enable-background:new 0 0 457.8 120.7;" xml:space="preserve"> <g> <path fill="#009AD9" d="M8.5,3.4c-5.2,4.1-7.8,9.5-7.8,15.9v0.8c0,4.2,1.5,8.4,4.6,12.4c3.7,3.8,7.6,5.8,11.5,5.8l21.8,0l3,0.5 c3.5,1.2,6.1,3.1,7.6,5.5c1.6,3.1,2.4,5.7,2.4,7.7c0,6.6-2.5,11.1-7.8,13.6c-1.4,0.8-4.7,1.2-9.8,1.2H0.4v4.8h39.2 c2.1,0,4.7-0.7,7.6-2.1c6.4-3.8,9.7-9.6,9.7-17.1c0-6.3-2.3-11.5-6.9-15.6c-3.5-2.4-6.4-3.6-8.7-3.6H18.8c-1.4,0-3.1-0.4-5.1-1.1 c-5.3-2.9-7.8-7.1-7.8-12.8c0-6,2.3-10.2,7.2-12.8c1.7-1,5-1.5,9.9-1.5H57v-5H20.1C16,0.2,12.1,1.2,8.5,3.4z"></path> <polygon fill="#009AD9" points="112.2,33.6 65.7,33.6 65.7,0 60.5,0 60.5,71.8 65.7,71.8 65.7,38.7 112.2,38.7 112.2,71.8 117.2,71.8 117.2,0 112.2,0 	"></polygon> <path fill="#009AD9" d="M177.3,24.8c-0.7-4-1.5-6.9-2.5-8.7c-1.7-4.1-5.1-7.9-10-11.1c-5.1-2.9-10.5-4.3-16.2-4.3 c-2.5,0-5.5,0.5-8.9,1.5c-6.3,2.1-11.3,5.9-14.8,11.3c-2.8,4.9-4.2,10.5-4.2,16.5v12.6c0,10,3.6,17.9,10.6,23.7 c5.6,3.7,11,5.5,15.9,5.5h1.5c8.2,0,15.1-2.6,20.6-7.7c5.3-5.3,8.1-12,8.1-19.8l0-16.2L177.3,24.8z M163.1,62 c-4.4,2.8-8.9,4.2-13.2,4.2h-1.3c-1.2,0-3.3-0.3-6.2-0.8c-11-3.7-16.4-11.3-16.4-23.1V29.8c0-3.7,0.7-7.3,2.1-10.8 c2.6-5.3,6.6-9.1,12-11.1c3.5-1.1,6.5-1.6,9.1-1.6l2.2,0.3c3.3,0,7.3,1.5,11.8,4.3c6,5.1,9.1,11.3,9.2,18.5l0,16.1 c-0.8,5-2.1,8.6-3.8,10.9C167.4,58.4,165.5,60.3,163.1,62z"></path> <path fill="#009AD9" d="M234,31.4c1.7-2.3,2.9-5.5,3.6-9.6v-4.7c0-1.7-0.6-3.9-1.9-6.8c-1.1-2.3-2.7-4.4-5-6.3 c-3.6-2.6-7.3-3.9-11-3.9H181v71.8h5.2V38.7h27.8c0.9,1.4,5.1,8.5,18.9,32.7l0.3,0.6l4.5-2.3l-17.8-31.1 C225.6,38.4,230.4,35.9,234,31.4z M186.1,5h33.4c2.5,0,5.3,1,8.2,2.9c3.3,3,5,6.9,5,11.4c0,3.7-1.2,6.9-3.6,9.7 c-2.2,3-6.2,4.5-12,4.5h-30.9V5z"></path> <path fill="#009AD9" d="M260.6,3c-7.6,3.5-13.6,9-17.7,16.6c-2.6,6-4,11.4-4,16.3c0,3.9,0.9,8.5,2.7,13.7c1.2,2.9,3.2,6.2,6,9.9 c7.8,8.2,16.7,12.3,26.5,12.3h21.5v-5h-18.9c-5.6,0-10-0.7-13.2-2.2c-5.4-2-10.1-5.8-13.9-11c-2.9-4.7-4.8-9.7-5.4-14.8h35.3v-5.2 h-35.3l0.2-1.7c0.8-5.1,2.7-9.8,5.6-13.9c6.7-8.4,15.1-12.7,25.2-12.7h20.3V0h-19.8C270.5,0,265.4,1,260.6,3z"></path> <path fill="#616365" d="M343.5,5.9l-0.1-0.1c-4-3.7-8.5-5.6-13.4-5.6h-30.8v5h27.1c3.7,0,6.4,0.2,7.9,0.6c3.7,1.4,6.2,3.6,7.7,6.6 c0.8,1.4,1.4,3.8,1.7,7.2c-0.7,4.8-1.4,6.4-1.8,7c-3,4.6-6.6,6.9-11,6.9h-28.2v5.2h25.1c2.9,0,5,0.2,6,0.5c3.8,1.3,6.3,3.2,7.5,5.5 l0.2,0.2c0.6,0.6,1.5,2.3,2.3,7.3l-0.1,0.7c0,3.5-1.2,6.9-3.4,9.8c-3,2.8-6.2,4.2-9.7,4.2h-31.1v5h25.1l7-0.2c2.2,0,5-0.7,8.2-2.2 c3-1.8,5.3-4.4,6.8-7.7c0.6-0.4,1.2-1.9,2.2-7.6v-1.3c0-2.7-0.5-5.4-1.4-8.2c-2-4.2-4.5-7.1-7.3-8.6c5.8-3.6,8.7-9.3,8.7-16.8v-1.3 c0-2.1-0.8-4.8-2.4-8.3L343.5,5.9z"></path> <path fill="#616365" d="M389.1,25.9c-4.4-2.2-8.3-3.3-11.6-3.3c-3.5,0-6.6,0.5-9.3,1.5L384,0h-5.9l-0.2,0.3 c-3.1,4.4-10,14.9-20.6,31.1c-3,4.1-4.7,9.3-5.2,15.5c0,9.3,4,16.6,12,21.9c4.3,2,7.8,3,10.6,3h2.6l2.1-0.2c3.9,0,8.5-2,13.8-5.9 c5.3-5.6,8.1-11.5,8.1-17.5c0-5.7-1.2-10.3-3.5-13.6C396.1,31.5,393.2,28.6,389.1,25.9z M396.4,47c0,5.5-1.9,10.3-5.5,14.2 c-4,3.6-8.7,5.4-14.1,5.4h-0.7c-4.2,0-8.4-1.4-12.3-4.2c-4.4-4.2-6.7-8.9-6.7-14.2v-1.8c0-4.1,1.5-8.2,4.4-12 c4.1-4.3,9-6.5,14.6-6.5h1c5.9,0,11,2.3,15,6.7C395,38.7,396.4,42.8,396.4,47z"></path> <path fill="#616365" d="M444.5,3.3c-4.7-2.1-8.8-3.2-12.4-3.2h-1.6c-2.7,0-6.4,0.8-11,2.4c-9.8,5-14.8,13.4-14.8,25v17.4 c0,2.1,0.2,4.2,0.7,6.1c0.6,4.3,2.8,8.8,6.8,13.5c5.7,4.8,11.6,7.2,17.5,7.2h3.6h0c2-0.1,3-0.2,3.6-0.5c2.2-0.1,5.3-1.3,9.6-3.7 c2.1-1.4,3.7-2.8,4.7-4c4.2-4.7,6.4-10.5,6.4-17.2V25.6C457.6,15.9,453.2,8.4,444.5,3.3z M452.4,27.2v17.7c0,7-2.3,12.6-6.8,16.6 c-4.6,3.4-9.3,5.1-14,5.1h-1c-1.6,0-3.9-0.4-6.8-1.3c-5.5-2.1-9.1-5-10.8-8.6l-0.1-0.1c-2-2.6-3-7.7-3-15V30.5 c0-5.5,0.5-9.5,1.4-12c1-2.4,2.5-4.8,4.4-7.1c4.9-3.9,9.8-5.9,14.7-5.9h1.1c3.4,0,7,1,10.5,2.9C449,12.1,452.4,18.5,452.4,27.2z"></path> </g> <g> <path fill="#009AD9" d="M9,117.8H7v-6.7l-7-10.2h2.3l5.7,8.5l5.7-8.5H16l-7,10.2V117.8z"></path> <path fill="#009AD9" d="M30.3,118.1c-5.1,0-8.6-4-8.6-8.7c0-4.7,3.5-8.8,8.6-8.8c5.1,0,8.6,4,8.6,8.7C38.9,114,35.4,118.1,30.3,118.1z M30.3,102.4c-3.9,0-6.6,3.1-6.6,7c0,3.9,2.8,7,6.7,7s6.6-3.1,6.6-7C36.9,105.5,34.1,102.4,30.3,102.4z"></path> <path fill="#009AD9" d="M61.6,110.6c0,4.9-2.8,7.5-7.1,7.5c-4.2,0-7-2.6-7-7.3v-9.8h1.9v9.7c0,3.7,1.9,5.7,5.2,5.7 c3.1,0,5.1-1.9,5.1-5.6v-9.8h1.9V110.6z"></path> <path fill="#009AD9" d="M82.6,117.8l-4.9-6.6h-4.8v6.6H71v-16.9h7.3c3.7,0,6.1,2,6.1,5c0,2.8-1.9,4.5-4.6,5l5.2,6.9H82.6z M78.1,102.6 h-5.2v6.9h5.2c2.5,0,4.3-1.3,4.3-3.5C82.4,103.9,80.8,102.6,78.1,102.6z"></path> <path fill="#009AD9" d="M111.4,108.4c3.8,0.8,5.5,2.2,5.5,4.8c0,2.9-2.4,4.8-5.8,4.8c-2.7,0-4.9-0.9-6.9-2.7l1.2-1.4 c1.8,1.6,3.5,2.4,5.8,2.4c2.3,0,3.8-1.2,3.8-2.9c0-1.6-0.8-2.5-4.4-3.2c-3.9-0.8-5.7-2.1-5.7-4.9c0-2.7,2.3-4.6,5.6-4.6 c2.5,0,4.2,0.7,5.9,2.1l-1.1,1.5c-1.6-1.3-3.1-1.8-4.9-1.8c-2.2,0-3.6,1.2-3.6,2.8C106.8,106.7,107.7,107.6,111.4,108.4z"></path> <path fill="#009AD9" d="M131.7,117.8h-1.9v-15.1h-5.7v-1.8h13.3v1.8h-5.7V117.8z"></path> <path fill="#009AD9" d="M159.4,117.8h-2.1l-2-4.5h-9.2l-2,4.5h-2l7.7-17h1.8L159.4,117.8z M150.8,103l-3.9,8.6h7.7L150.8,103z"></path> <path fill="#009AD9" d="M179.7,102.6h-10.2v6h9.2v1.7h-9.2v7.4h-1.9v-16.9h12.2V102.6z"></path> <path fill="#009AD9" d="M200.4,102.6h-10.2v6h9.2v1.7h-9.2v7.4h-1.9v-16.9h12.2V102.6z"></path> <path fill="#009AD9" d="M206.8,117.8H206v-2.5h2.2v2.2c0,2-0.8,2.9-2.7,3.3l-0.3-0.8C206.4,119.5,206.9,118.8,206.8,117.8z"></path> <path fill="#009AD9" d="M237.2,118.1c-5.1,0-8.6-4-8.6-8.7c0-4.7,3.5-8.8,8.6-8.8c5.1,0,8.6,4,8.6,8.7 C245.8,114,242.3,118.1,237.2,118.1z M237.2,102.4c-3.9,0-6.6,3.1-6.6,7c0,3.9,2.8,7,6.7,7c3.9,0,6.6-3.1,6.6-7 C243.9,105.5,241.1,102.4,237.2,102.4z"></path> <path fill="#009AD9" d="M268.5,110.6c0,4.9-2.8,7.5-7.1,7.5c-4.2,0-7-2.6-7-7.3v-9.8h1.9v9.7c0,3.7,1.9,5.7,5.2,5.7 c3.1,0,5.1-1.9,5.1-5.6v-9.8h1.9V110.6z"></path> <path fill="#009AD9" d="M289.5,117.8l-4.9-6.6h-4.8v6.6h-1.9v-16.9h7.3c3.7,0,6.1,2,6.1,5c0,2.8-1.9,4.5-4.6,5l5.2,6.9H289.5z M285,102.6h-5.2v6.9h5.2c2.5,0,4.3-1.3,4.3-3.5C289.4,103.9,287.8,102.6,285,102.6z"></path> <path fill="#616365" d="M318.4,108.4c3.8,0.8,5.5,2.2,5.5,4.8c0,2.9-2.4,4.8-5.8,4.8c-2.7,0-4.9-0.9-6.9-2.7l1.2-1.4 c1.8,1.6,3.5,2.4,5.8,2.4c2.3,0,3.8-1.2,3.8-2.9c0-1.6-0.8-2.5-4.4-3.2c-3.9-0.8-5.7-2.1-5.7-4.9c0-2.7,2.3-4.6,5.6-4.6 c2.5,0,4.2,0.7,5.9,2.1l-1.1,1.5c-1.6-1.3-3.1-1.8-4.9-1.8c-2.2,0-3.6,1.2-3.6,2.8C313.8,106.7,314.6,107.6,318.4,108.4z"></path> <path fill="#616365" d="M346.4,110.6c0,4.9-2.8,7.5-7.1,7.5c-4.2,0-7-2.6-7-7.3v-9.8h1.9v9.7c0,3.7,1.9,5.7,5.2,5.7 c3.1,0,5.1-1.9,5.1-5.6v-9.8h1.9V110.6z"></path> <path fill="#616365" d="M361.8,111.8h-4.1v6h-1.9v-16.9h6.3c3.8,0,6.3,2,6.3,5.4C368.4,109.9,365.4,111.8,361.8,111.8z M362,102.6 h-4.3v7.4h4.2c2.8,0,4.6-1.5,4.6-3.7C366.5,103.9,364.7,102.6,362,102.6z"></path> <path fill="#616365" d="M382.8,111.8h-4.1v6h-1.9v-16.9h6.3c3.8,0,6.3,2,6.3,5.4C389.4,109.9,386.4,111.8,382.8,111.8z M382.9,102.6 h-4.3v7.4h4.2c2.8,0,4.6-1.5,4.6-3.7C387.5,103.9,385.7,102.6,382.9,102.6z"></path> <path fill="#616365" d="M405.6,118.1c-5.1,0-8.6-4-8.6-8.7c0-4.7,3.5-8.8,8.6-8.8c5.1,0,8.6,4,8.6,8.7 C414.2,114,410.7,118.1,405.6,118.1z M405.6,102.4c-3.9,0-6.6,3.1-6.6,7c0,3.9,2.8,7,6.7,7c3.9,0,6.6-3.1,6.6-7 C412.2,105.5,409.4,102.4,405.6,102.4z"></path> <path fill="#616365" d="M434.7,117.8l-4.9-6.6H425v6.6h-1.9v-16.9h7.3c3.7,0,6.1,2,6.1,5c0,2.8-1.9,4.5-4.6,5l5.2,6.9H434.7z M430.2,102.6H425v6.9h5.2c2.5,0,4.3-1.3,4.3-3.5C434.6,103.9,433,102.6,430.2,102.6z"></path> <path fill="#616365" d="M451.6,117.8h-1.9v-15.1H444v-1.8h13.3v1.8h-5.7V117.8z"></path> </g> <g> <rect x="0.5" y="84.4" fill="#009AD9" width="297.8" height="4.6"></rect> </g> <g> <rect x="297.5" y="84.4" fill="#616365" width="160.3" height="4.6"></rect> </g> </svg>
